<?xml version="1.0" encoding="utf-8"?>
<!-- Generator: Adobe Illustrator 26.0.0, SVG Export Plug-In . SVG Version: 6.00 Build 0)  -->
<svg version="1.1" id="OBJECTS" xmlns="http://www.w3.org/2000/svg" xmlns:xlink="http://www.w3.org/1999/xlink" x="0px" y="0px"
	 viewBox="0 0 750 488.7" style="enable-background:new 0 0 750 488.7;" xml:space="preserve">
<style type="text/css">
	.st0{fill:#EBEBFF;}
	.st1{fill:#D6D7F4;}
	.st2{fill:#3D5AC4;}
	.st3{fill:#5571E9;}
	.st4{fill:#27429C;}
	.st5{fill:#312C76;}
	.st6{fill:#151247;}
	.st7{opacity:0.16;fill:#5571E9;enable-background:new    ;}
	.st8{fill:#F5D100;}
	.st9{clip-path:url(#SVGID_00000013904410976879090480000000394426485334324876_);fill:#FFFFFF;}
	.st10{clip-path:url(#SVGID_00000024708668846450698360000015587372128983957675_);fill:#FFFFFF;}
	.st11{clip-path:url(#SVGID_00000142171385064074175930000016900707131946645424_);fill:#FFFFFF;}
	.st12{clip-path:url(#SVGID_00000155854052088820261390000012185897599485111709_);fill:#FFFFFF;}
	.st13{clip-path:url(#SVGID_00000086670578886824089610000003944129734066319282_);fill:#FFFFFF;}
	.st14{fill:#14103D;}
	.st15{fill:#EB8175;}
	.st16{fill:#231C61;}
	.st17{fill:#E1AD9D;}
	.st18{fill:#C8C6F2;}
	.st19{fill:#D8D7FD;}
	.st20{fill:#091218;}
	.st21{fill:#1B2934;}
	.st22{fill:#FFFFFF;}
	.st23{fill:#E16C5F;}
	.st24{clip-path:url(#SVGID_00000172405839214084612530000002378273326704337301_);fill:#231C61;}
	.st25{clip-path:url(#SVGID_00000149347863994731591000000001702295987832157885_);fill:#231C61;}
	.st26{fill:none;stroke:#F1AB00;stroke-width:0.2802;stroke-miterlimit:10;}
	.st27{fill:none;stroke:#FFFFFF;stroke-width:1.1206;stroke-linecap:round;stroke-linejoin:round;stroke-miterlimit:10;}
	.st28{fill:#334FBE;}
	.st29{fill:#4265D1;}
	.st30{clip-path:url(#SVGID_00000000189052264179998300000002090111102497437621_);fill:#231C61;}
	.st31{clip-path:url(#SVGID_00000049941222514055055470000009779345159579708595_);fill:#231C61;}
	.st32{fill:none;stroke:#F1AB00;stroke-width:0.2834;stroke-miterlimit:10;}
	.st33{fill:none;stroke:#FFFFFF;stroke-width:1.1334;stroke-linecap:round;stroke-linejoin:round;stroke-miterlimit:10;}
	.st34{fill:none;stroke:#3D5AC4;stroke-width:2.6489;stroke-miterlimit:10;}
	.st35{fill:none;stroke:#5571E9;stroke-width:2.6489;stroke-miterlimit:10;}
	.st36{fill:#2F4DAB;}
	.st37{fill:none;stroke:#231C61;stroke-width:2.1624;stroke-miterlimit:10;}
	.st38{fill:none;stroke:#231C61;stroke-width:1.1138;stroke-miterlimit:10;}
	.st39{fill:#373482;}
	.st40{fill:none;stroke:#5571E9;stroke-width:2.6489;stroke-linecap:round;stroke-linejoin:round;stroke-miterlimit:10;}
	.st41{clip-path:url(#SVGID_00000083048358728704818220000017439953174112356026_);fill:#FAFAFA;}
	.st42{clip-path:url(#SVGID_00000159429348695533086940000011535118233094549633_);fill:#FAFAFA;}
	.st43{fill:#E8C400;}
	.st44{clip-path:url(#SVGID_00000077306125680715206250000007357397962348016011_);fill:#FAFAFA;}
	.st45{clip-path:url(#SVGID_00000127003874255146420370000015779886130664659864_);fill:#FAFAFA;}
	.st46{fill:none;stroke:#3D5AC4;stroke-width:1.1366;stroke-linecap:round;stroke-linejoin:round;stroke-miterlimit:10;}
	.st47{fill:#1C1C1B;}
</style>
<g>
	<g>
		<g>
			<g>
				<g>
					<path class="st0" d="M742.5,336.3c8-26.1,9.9-53.8,4.2-80.4c-9-41.7-38.1-92.2-121.9-114C466.1,100.7,410.9-19.9,262.5,18.5
						c0,0-79.7,14.5-117.4,146.3C107.4,296.6-40.3,298.9,10.5,413.7c8.3,18.8,30.7,39.2,62.8,58.6l602-2
						C717,420.2,730,376.9,742.5,336.3z"/>
				</g>
				<g>
					<path class="st1" d="M600.4,242.1h-22.6v-24.7c0-12.4-8.6-22.8-20.2-25.5v-30.7h-8.3v30.1c-13.3,1.2-23.8,12.4-23.8,26v25.4
						h-22.5v28.3h-1.5v52.7l-40.8-0.3v-63h-46.8v46.1h-32.8v44.8h-39.7v118.6h131.8v0h28.3v0h165.3V320.5h-66.5L600.4,242.1z"/>
					<polygon class="st1" points="134.3,307.3 134.3,248.3 156.5,248.3 156.5,216.7 164.8,216.7 164.8,248.3 185.1,248.3 
						185.1,307.3 208,307.3 208,342.6 244.4,342.6 244.4,222.2 320.5,222.2 320.5,470.2 270.9,470.2 249.6,470.2 195.8,470.2 
						171,470.2 106.2,470.2 106.2,307.3 					"/>
				</g>
			</g>
			<g>
				<g>
					<g>
						<path class="st2" d="M549.8,469.6l-346.6,0.3c-13.1,0-23.8-10.6-23.8-23.7l0,0l394.1-0.3l0,0
							C573.5,458.9,562.9,469.6,549.8,469.6z"/>
						<path class="st3" d="M549.8,461.4l-346.6,0.3c-10.2,0-19-6.5-22.3-15.6l-1.5,0c0,13.1,10.7,23.8,23.8,23.7l346.6-0.3
							c13.1,0,23.8-10.7,23.7-23.8l-1.5,0C568.7,454.9,560,461.4,549.8,461.4z"/>
						<path class="st4" d="M398.9,453.9l-44.8,0c-4.4,0-8-3.6-8-8l0,0l60.7,0l0,0C406.8,450.3,403.3,453.9,398.9,453.9z"/>
					</g>
					<g>
						<path class="st3" d="M553.2,445.8l-353.5,0.3l-0.2-213.4c0-12.2,9.9-22.2,22.1-22.2l309.2-0.2c12.2,0,22.2,9.9,22.2,22.1
							L553.2,445.8z"/>
						<rect x="218" y="228.8" class="st5" width="316.7" height="198.7"/>
						<rect x="218.1" y="408.5" class="st6" width="316.7" height="19"/>
						<rect x="217.9" y="228.8" class="st6" width="316.7" height="9.4"/>
						<g>
							<polygon class="st7" points="323.6,228.8 218,334.6 218.1,427.6 218.3,427.6 416.9,228.8 							"/>
							<polygon class="st7" points="259,427.6 305.8,427.5 504.3,228.7 457.5,228.7 							"/>
							<polygon class="st7" points="497.6,427.4 534.8,390.1 534.7,319.6 423,427.4 							"/>
						</g>
					</g>
				</g>
				<g>
					<g>
						<rect id="XMLID_8_" x="199.5" y="313.7" class="st8" width="353.7" height="39"/>
					</g>
					<g>
						<defs>
							<rect id="SVGID_1_" x="199.5" y="313.7" width="353.7" height="39"/>
						</defs>
						<clipPath id="SVGID_00000056398750560784634600000015158278356372868512_">
							<use xlink:href="#SVGID_1_"  style="overflow:visible;"/>
						</clipPath>
						<polygon style="clip-path:url(#SVGID_00000056398750560784634600000015158278356372868512_);fill:#FFFFFF;" points="
							243.7,366.4 213.2,366.4 239.4,306.5 269.9,306.5 						"/>
					</g>
					<g>
						<defs>
							<rect id="SVGID_00000101069294605979822600000006057140957828553380_" x="199.5" y="313.7" width="353.7" height="39"/>
						</defs>
						<clipPath id="SVGID_00000043430932822334934130000004490676193336764070_">
							<use xlink:href="#SVGID_00000101069294605979822600000006057140957828553380_"  style="overflow:visible;"/>
						</clipPath>
						<polygon style="clip-path:url(#SVGID_00000043430932822334934130000004490676193336764070_);fill:#FFFFFF;" points="
							308.6,366.4 278.1,366.4 304.3,306.5 334.8,306.5 						"/>
					</g>
					<g>
						<defs>
							<rect id="SVGID_00000182495447983235411220000013135706260689889424_" x="199.5" y="313.7" width="353.7" height="39"/>
						</defs>
						<clipPath id="SVGID_00000072280381359317808350000001853417623900965026_">
							<use xlink:href="#SVGID_00000182495447983235411220000013135706260689889424_"  style="overflow:visible;"/>
						</clipPath>
						<polygon style="clip-path:url(#SVGID_00000072280381359317808350000001853417623900965026_);fill:#FFFFFF;" points="
							373.5,366.4 343,366.4 369.2,306.5 399.7,306.5 						"/>
					</g>
					<g>
						<defs>
							<rect id="SVGID_00000004515198740959188190000008008017449397158544_" x="199.5" y="313.7" width="353.7" height="39"/>
						</defs>
						<clipPath id="SVGID_00000075131950000451693690000010535628549566032039_">
							<use xlink:href="#SVGID_00000004515198740959188190000008008017449397158544_"  style="overflow:visible;"/>
						</clipPath>
						<polygon style="clip-path:url(#SVGID_00000075131950000451693690000010535628549566032039_);fill:#FFFFFF;" points="
							438.4,366.4 407.9,366.4 434.1,306.5 464.6,306.5 						"/>
					</g>
					<g>
						<defs>
							<rect id="SVGID_00000143613387854188960420000009053699794399892389_" x="199.5" y="313.7" width="353.7" height="39"/>
						</defs>
						<clipPath id="SVGID_00000147920083399258216260000000055658445099979155_">
							<use xlink:href="#SVGID_00000143613387854188960420000009053699794399892389_"  style="overflow:visible;"/>
						</clipPath>
						<polygon style="clip-path:url(#SVGID_00000147920083399258216260000000055658445099979155_);fill:#FFFFFF;" points="
							503.3,366.4 472.8,366.4 499,306.5 529.5,306.5 						"/>
					</g>
				</g>
			</g>
			<g>
				<g>
					<g>
						<g>
							<g>
								<path class="st14" d="M171.1,246.2l-6.9,0.3l-4-1.3c-1.9-0.6-3.9,0.1-5,1.7l-0.5,0.8l20.2,11.2l3.9-8.4L171.1,246.2z"/>
								<path class="st14" d="M174.9,259.1l-20.4-11.3l0.7-1.3c0.1-0.3,0.5-0.3,0.7-0.2l19.9,11L174.9,259.1"/>
							</g>
							<polygon class="st15" points="178.8,250.5 184.1,241.3 178.8,231.7 171.1,246.2 							"/>
						</g>
						<path class="st14" d="M220.6,197.3c0,0-28.8-8.3-31.6-0.5c-2.8,7.8-19.6,42.2-19.6,42.2l12.5,6.5l18.8-32.7l25.3-2.2
							L220.6,197.3z"/>
					</g>
					<g>
						<g>
							<g>
								<path class="st14" d="M197.2,256.7l-5.6,3.6l-4.2,0.8c-1.9,0.4-3.3,2-3.5,3.9l-0.1,0.9l23.1,0l-0.6-9.2L197.2,256.7z"/>
								<path class="st14" d="M207,266.1l-23.3,0l0-1.5c0-0.3,0.2-0.5,0.5-0.5l22.7,0L207,266.1"/>
							</g>
							<polygon class="st15" points="206.3,256.7 207,241.3 197.8,240.2 197.2,256.7 							"/>
						</g>
						<path class="st16" d="M224.5,196l-27.2,1.2c0,0-3.9,0.2-3.6,9.4c0.3,9.1,0.2,45.9,0.2,45.9l13,0.5l2.5-38.5l27.2-0.3
							c5.7-0.1,11.1-3.4,13.3-8.6c0.9-2,1.3-4.3,0.7-6.6L224.5,196z"/>
					</g>
				</g>
				<g>
					<g>
						<g>
							<path class="st17" d="M198.8,190.5c0,2.6-1.7,3-4.3,3c-2.6,0-5-0.4-5-3c0-2.6,2.1-4.7,4.7-4.7
								C196.7,185.9,198.8,188,198.8,190.5z"/>
							<path class="st17" d="M202,193.2l-5.4,0c-1.4,0-2.6-1.1-2.6-2.6l0,0c0-1.4,1.1-2.6,2.6-2.6l5.4,0c1.4,0,2.6,1.1,2.6,2.6l0,0
								C204.6,192,203.5,193.2,202,193.2z"/>
						</g>
						<path class="st18" d="M201.8,193.7l-1.8-8.8l22.2-2.4l4.4-25.9c0.4-2.4,3.9-5.3,6.2-4.8l-0.7-0.2c2.4,0.4,4.5,3.2,4.1,5.5
							l-4.3,31c-0.3,1.7-1.6,3-3.2,3.4L201.8,193.7z"/>
					</g>
					<path class="st19" d="M246.1,152.3c0.5,0,0.9,0.1,1.3,0.3l0.2,0.1c3.8,1.5,6.4,5.6,6.6,9.4l-3.5,36.7
						c-23-0.2-26.2-2.8-26.2-2.8l1.8-37.6c0.3-3.5,1.9-6.9,5.9-7.2l0,0L246.1,152.3z"/>
					<g>
						<g>
							<g>
								<path class="st15" d="M220.8,193.4c0.2,2.6-1.5,3.1-4.1,3.3c-2.6,0.2-5,0-5.2-2.6c-0.2-2.6,1.8-4.8,4.3-5
									C218.4,188.9,220.7,190.9,220.8,193.4z"/>
								<path class="st15" d="M224.3,195.8l-5.4,0.4c-1.4,0.1-2.6-1-2.7-2.4l0,0c-0.1-1.4,1-2.6,2.4-2.7l5.4-0.4
									c1.4-0.1,2.6,1,2.7,2.4l0,0C226.8,194.5,225.7,195.7,224.3,195.8z"/>
							</g>
							<path class="st19" d="M224.1,196.4l-2.4-8.7l24.2-3.9l-1.4-22.5c0.3-2.4,2.9-5.1,5.3-4.8l0,0c2.4,0.3,4.7,2.9,4.4,5.3
								l1.7,26.9c-0.2,1.7-1.4,3.1-3,3.6L224.1,196.4z"/>
						</g>
					</g>
					<g>
						<path class="st20" d="M182.3,166.6l26.4,2.5c0.9,0.1,1.6,0.8,1.7,1.6l2.8,23.8c0.1,1.2-0.8,2.2-2,2l-26.8-2.5
							c-0.9-0.1-1.6-0.8-1.7-1.7l-2.3-23.7C180.2,167.4,181.2,166.5,182.3,166.6z"/>
						<path class="st21" d="M180.8,166.4l26.4,2.5c0.9,0.1,1.6,0.8,1.7,1.6l2.8,23.8c0.1,1.2-0.8,2.2-2,2l-26.8-2.5
							c-0.9-0.1-1.6-0.8-1.7-1.7l-2.3-23.7C178.7,167.3,179.6,166.3,180.8,166.4z"/>
						<path class="st20" d="M212.4,194.6l18,1.7c0.5,0.1,1,0.5,0.9,1.1l0,0c-0.1,0.5-0.5,1-1.1,0.9l-19.1-1.7L212.4,194.6z"/>
						<path class="st22" d="M195.9,180.8c-0.1,1.6-1.6,2.8-3.1,2.6c-1.6-0.1-2.8-1.6-2.6-3.1c0.1-1.6,1.6-2.8,3.1-2.6
							C194.9,177.8,196,179.2,195.9,180.8z"/>
					</g>
					<polygon class="st18" points="243.7,166.6 244.3,183.4 221.7,187.7 241.6,181.5 					"/>
				</g>
				<g>
					<g>
						<path class="st15" d="M231.7,150.1l1.5,4c0.5,1.5,1.9,2.5,3.4,2.6l0,0c2.9,0.2,5.1-2.8,3.9-5.5l-2.6-6.2L231.7,150.1z"/>
						<path class="st23" d="M233.1,153.7c0,0,7.4-1.4,6.3-7.9c-1.1-6.5-8.1-1.4-8.1-1.4l0.7,6.5L233.1,153.7z"/>
						<g>
							<g>
								<g>
									<path id="XMLID_1_" class="st15" d="M221.6,134.3c-2.7,5.8-0.2,12.8,5.6,15.5c5.8,2.7,12.8,0.2,15.5-5.6
										c2.7-5.8,0.2-12.8-5.6-15.5C231.3,125.9,224.3,128.4,221.6,134.3z"/>
								</g>
								<g>
									<defs>
										<path id="SVGID_00000018929985589827136610000003453546810745960106_" d="M221.6,134.3c-2.7,5.8-0.2,12.8,5.6,15.5
											c5.8,2.7,12.8,0.2,15.5-5.6c2.7-5.8,0.2-12.8-5.6-15.5C231.3,125.9,224.3,128.4,221.6,134.3z"/>
									</defs>
									<clipPath id="SVGID_00000039856487847352227640000014818659353387043262_">
										<use xlink:href="#SVGID_00000018929985589827136610000003453546810745960106_"  style="overflow:visible;"/>
									</clipPath>
									<path style="clip-path:url(#SVGID_00000039856487847352227640000014818659353387043262_);fill:#231C61;" d="M236.5,141.5
										c0,0-1.8,9.3,5,9.5c6.9,0.2,3.1-17.5,3.1-17.5l-10.9-10.9l-16.6,4.1l1.6,10.7c0,0,2.6,1.4,16.9-1L236.5,141.5z"/>
								</g>
								<g>
									<defs>
										<path id="SVGID_00000089537321384042389030000002914425814268691645_" d="M221.6,134.3c-2.7,5.8-0.2,12.8,5.6,15.5
											c5.8,2.7,12.8,0.2,15.5-5.6c2.7-5.8,0.2-12.8-5.6-15.5C231.3,125.9,224.3,128.4,221.6,134.3z"/>
									</defs>
									<clipPath id="SVGID_00000097502327287076973690000013186373409043183544_">
										<use xlink:href="#SVGID_00000089537321384042389030000002914425814268691645_"  style="overflow:visible;"/>
									</clipPath>
									<polygon style="clip-path:url(#SVGID_00000097502327287076973690000013186373409043183544_);fill:#231C61;" points="
										229.7,134.2 235.1,142.2 239.9,137 									"/>
								</g>
							</g>
							<path class="st15" d="M234.6,139.3c-0.8,1.6-0.1,3.6,1.6,4.4c1.6,0.8,3.6,0.1,4.4-1.6c0.8-1.6,0.1-3.6-1.6-4.4
								C237.4,137,235.4,137.7,234.6,139.3z"/>
						</g>
					</g>
					<g>
						<path class="st8" d="M219.3,137.3c0,0-2.5-9.2,3.4-14.9c4.9-4.7,12.9-4.4,17.3,0.8c2,2.4,3.7,6.1,3.8,11.6L219.3,137.3z"/>
						<path class="st26" d="M220.6,137.1l-0.1-5.7c0-1.5,1.1-2.7,2.6-2.7l0,0c1.4-0.1,2.7,1,2.8,2.4l0.6,5.7"/>
						<line class="st27" x1="243.9" y1="134.9" x2="217.2" y2="137.4"/>
					</g>
				</g>
			</g>
			<g>
				<g>
					<g>
						<polygon class="st15" points="487.2,444.5 493.2,450.3 486.3,454 480.5,448.2 						"/>
						<path class="st14" d="M445,401.1l4,17.7c0.8,3.5,2.3,7,4.6,10.1l26.3,23.7l10.4-8.5l-22.5-23.8l-8.2-31.4L445,401.1z"/>
						<g>
							<path class="st14" d="M486.1,453.8l-2.2,6.9l-2.5,3.4c-1.1,1.6-1.1,3.7,0.1,5.2l0.6,0.7l16.8-15.7l-6.7-6.3L486.1,453.8z"/>
							<polyline class="st14" points="499.2,454.4 482.2,470.2 480.9,468.8 497.8,453 499.2,454.4 							"/>
						</g>
					</g>
					<g>
						<polygon class="st15" points="429.6,455.3 427.3,462.8 419.6,460.7 421.9,453.3 						"/>
						<path class="st16" d="M439.9,381.4l-21.6,73.1l13.6,3.4l12.2-36.6l14.9-24c0.8-1.1,1.5-2.2,2.1-3.3c1.2-2.2,1.7-4.6,1.7-7
							l-0.1-4.8L439.9,381.4z"/>
						<g>
							<path class="st14" d="M420,460l-6.8,2.5l-4.3,0.1c-2,0.1-3.6,1.4-4.1,3.3l-0.2,0.9l22.8,3.8l0.9-9.2L420,460z"/>
							<polyline class="st14" points="427.5,470.8 404.5,467 404.8,465 427.9,468.8 427.5,470.8 							"/>
						</g>
					</g>
				</g>
				<g>
					<g>
						<g>
							<polygon class="st28" points="409.7,307.2 401,320.8 405.2,323.8 414.2,309.4 							"/>
							<path class="st29" d="M398.4,284.6c0,0,4,16.9,24.5,23.5c0.6,0.2,1,0.7,1.1,1.3c0.3,2,0.3,6.2-4.3,7.4
								c-0.4,0.1-0.9,0-1.3-0.2c-3.1-2-18.5-11-33.4-8.4L398.4,284.6z"/>
							<path class="st28" d="M398.4,284.6c0,0-3.8,16.9-13.4,23.7C385,308.3,386.4,293.5,398.4,284.6z"/>
						</g>
						<g>
							<g>
								<g>
									<path class="st15" d="M398.2,319.9c-0.6,3.1,1.9,6.9,5,7.5c3.1,0.6,6.1-1.4,6.8-4.5c0.6-3.1-1.9-6.9-5-7.5
										C401.8,314.8,398.8,316.8,398.2,319.9z"/>
								</g>
								<polyline class="st15" points="414.6,329 408.5,322.7 404.6,327.6 414.6,334.9 								"/>
							</g>
							<path class="st18" d="M413.6,323.2l-6.4,9.5l17.5,16c1.1,0.3,2.2,0.4,3.3,0.3l23.1-3c3.6-0.2,6.5-3.3,6.3-6.9l0,0
								c-0.2-3.6,0.5-8.9-3.1-8.7l-26.8,5.5L413.6,323.2z"/>
						</g>
					</g>
					<g>
						<g>
							<path class="st19" d="M465.4,345c0.6-5-1.7-10-6-12.8c-1.9-1.2-3.8-2.1-5.2-1.8c-4.6,0.8-9.3,2.9-11.4,9.1
								c-3.4,10.6-4.4,41.9-4.4,41.9l24.8,0.8L465.4,345z"/>
						</g>
						<polygon class="st18" points="456.3,345.8 463.7,373.2 465.2,349.9 						"/>
					</g>
					<g>
						<g>
							<g>
								<path class="st15" d="M486.7,399.8c2.3-2.1,2.5-6.7,0.4-9c-2.1-2.3-5.8-2.5-8.1-0.4c-2.3,2.1-2.5,6.7-0.4,9
									C480.7,401.8,484.3,401.9,486.7,399.8z"/>
							</g>
							<polyline class="st15" points="475.4,380.3 479.9,391.5 486,389.9 482.2,378 							"/>
						</g>
						<path class="st19" d="M475.7,388.9l12.4-2.7l-8.4-28.8c-0.3-1.1-0.8-2.1-1.5-3l-15.4-19.2c-2.1-3-5.6-2.5-8.6-0.4l0,0
							c-3,2.1-3.7,6.2-1.6,9.2l14.9,17.9L475.7,388.9z"/>
					</g>
				</g>
				<g>
					<g>
						<path class="st15" d="M448.5,326.6l0.5,4.3c0.2,1.6,1.2,2.9,2.7,3.4l0,0c2.8,0.9,5.7-1.5,5.2-4.4l-1-6.7L448.5,326.6z"/>
						<path class="st23" d="M448.9,330.5c0,0,7.7-0.3,8.2-6.9c0.5-6.6-7.6-2.7-7.6-2.7l-0.9,6.5L448.9,330.5z"/>
						<g>
							<g>
								<g>
									<path id="XMLID_11_" class="st15" d="M442.5,308.6c-4.1,5-3.4,12.5,1.7,16.6c5,4.1,12.5,3.4,16.6-1.7
										c4.1-5,3.4-12.5-1.7-16.6C454,302.8,446.6,303.6,442.5,308.6z"/>
								</g>
								<g>
									<defs>
										<path id="SVGID_00000141444063071612662170000016237064834381693063_" d="M442.5,308.6c-4.1,5-3.4,12.5,1.7,16.6
											c5,4.1,12.5,3.4,16.6-1.7c4.1-5,3.4-12.5-1.7-16.6C454,302.8,446.6,303.6,442.5,308.6z"/>
									</defs>
									<clipPath id="SVGID_00000149373357842863012110000017839367137072275886_">
										<use xlink:href="#SVGID_00000141444063071612662170000016237064834381693063_"  style="overflow:visible;"/>
									</clipPath>
									<path style="clip-path:url(#SVGID_00000149373357842863012110000017839367137072275886_);fill:#231C61;" d="M455.3,319.4
										c0,0-4.1,8.7,2.5,10.6c6.7,1.9,7.4-16.4,7.4-16.4l-7.9-13.4l-17.3-0.1L439,311c0,0,2.2,2,16.8,3.3L455.3,319.4z"/>
								</g>
								<g>
									<defs>
										<path id="SVGID_00000067922870457967916280000000010027955631724963_" d="M442.5,308.6c-4.1,5-3.4,12.5,1.7,16.6
											c5,4.1,12.5,3.4,16.6-1.7c4.1-5,3.4-12.5-1.7-16.6C454,302.8,446.6,303.6,442.5,308.6z"/>
									</defs>
									<clipPath id="SVGID_00000150812966940297558910000002651641439341368765_">
										<use xlink:href="#SVGID_00000067922870457967916280000000010027955631724963_"  style="overflow:visible;"/>
									</clipPath>
									<polygon style="clip-path:url(#SVGID_00000150812966940297558910000002651641439341368765_);fill:#231C61;" points="
										450.5,310.5 453.8,319.7 459.7,315.8 									"/>
								</g>
							</g>
							<path class="st15" d="M454,316.8c-1.2,1.4-1,3.5,0.5,4.7c1.4,1.2,3.5,1,4.7-0.5c1.2-1.4,1-3.5-0.5-4.7
								C457.3,315.2,455.2,315.4,454,316.8z"/>
						</g>
					</g>
					<g>
						<path class="st8" d="M439.5,312c0,0-0.6-9.6,6.5-14c5.8-3.6,13.7-1.6,16.9,4.4c1.5,2.8,2.4,6.8,1.4,12.3L439.5,312z"/>
						<path class="st32" d="M440.8,312.1l1.1-5.7c0.3-1.4,1.7-2.4,3.1-2.2l0,0c1.4,0.2,2.4,1.5,2.3,3l-0.6,5.8"/>
						<line class="st33" x1="464.3" y1="314.7" x2="437.3" y2="311.7"/>
					</g>
				</g>
			</g>
			<g>
				<g>
					<line class="st34" x1="629" y1="384.6" x2="601" y2="412.1"/>
					<line class="st34" x1="629" y1="355.1" x2="601" y2="382.7"/>
					<line class="st34" x1="629" y1="325.7" x2="601" y2="353.3"/>
					<line class="st34" x1="629" y1="296.3" x2="601" y2="323.8"/>
					<line class="st34" x1="629" y1="266.9" x2="601" y2="294.4"/>
					<line class="st34" x1="629" y1="237.5" x2="601" y2="265"/>
					<line class="st34" x1="629" y1="208.1" x2="601" y2="235.6"/>
					<line class="st34" x1="629" y1="178.7" x2="601" y2="206.2"/>
					<line class="st34" x1="629" y1="149.3" x2="601" y2="176.8"/>
					<line class="st34" x1="629" y1="119.9" x2="601" y2="147.4"/>
					<line class="st34" x1="629" y1="90.5" x2="601" y2="118"/>
					<line class="st34" x1="601" y1="382.7" x2="629" y2="382.7"/>
					<line class="st34" x1="601" y1="353.3" x2="629" y2="353.3"/>
					<line class="st34" x1="601" y1="323.8" x2="629" y2="323.8"/>
					<line class="st34" x1="601" y1="294.4" x2="629" y2="294.4"/>
					<line class="st34" x1="601" y1="265" x2="629" y2="265"/>
					<line class="st34" x1="601" y1="235.6" x2="629" y2="235.6"/>
					<line class="st34" x1="601" y1="206.2" x2="629" y2="206.2"/>
					<line class="st34" x1="601" y1="176.8" x2="629" y2="176.8"/>
					<line class="st34" x1="601" y1="147.4" x2="629" y2="147.4"/>
					<line class="st34" x1="601" y1="118" x2="629" y2="118"/>
					<line class="st35" x1="601" y1="420" x2="601" y2="95.2"/>
					<line class="st35" x1="629" y1="420" x2="629" y2="95.2"/>
					<rect x="586.6" y="412.1" class="st16" width="55.6" height="57.8"/>
				</g>
				<g>
					<g>
						<path class="st2" d="M634,95.2h-39c-2.4,0-4.3-1.9-4.3-4.3V44.5c0-2.4,1.9-4.3,4.3-4.3h39c2.4,0,4.3,1.9,4.3,4.3v46.4
							C638.3,93.3,636.4,95.2,634,95.2z"/>
						<path class="st36" d="M617.5,79.2H595V53.4h22.5c1.8,0,3.3,1.5,3.3,3.3v19.2C620.8,77.7,619.3,79.2,617.5,79.2z"/>
					</g>
					<g>
						<g>
							<line class="st37" x1="416.9" y1="98.2" x2="439.2" y2="163"/>
							<line class="st37" x1="401.3" y1="90.5" x2="357.8" y2="149.3"/>
							<g>
								<path class="st8" d="M409.5,113l54.6,71.4c2.3,3,1.7,7.3-1.3,9.6l-71.4,54.6c-3,2.3-7.3,1.7-9.6-1.3L327.2,176
									c-2.3-3-1.7-7.3,1.3-9.6l71.4-54.6C402.9,109.5,407.2,110,409.5,113z"/>
								<path class="st38" d="M407,125.3l44.7,58.4c1.9,2.5,1.4,6-1,7.8l-58.4,44.7c-2.5,1.9-6,1.4-7.8-1l-44.7-58.4
									c-1.9-2.5-1.4-6,1-7.8l58.4-44.7C401.6,122.3,405.1,122.8,407,125.3z"/>
								<g>
									<path class="st16" d="M399.5,202.2c-1.2,8.7-14.4,7-13.3-1.8C387.4,191.6,400.7,193.4,399.5,202.2z M405.2,153.4l-5.2,36.7
										l-11.1-1.5c1.6-12.4,3-24.4,4.7-36.8L405.2,153.4z"/>
								</g>
							</g>
						</g>
						<g>
							<g>
								<circle class="st16" cx="410.5" cy="85" r="18.7"/>
								<path class="st39" d="M423.7,85c0,7.3-5.9,13.2-13.2,13.2s-13.2-5.9-13.2-13.2c0-7.3,5.9-13.2,13.2-13.2
									S423.7,77.7,423.7,85z"/>
							</g>
							<g>
								<line class="st34" x1="483.7" y1="0.6" x2="483.7" y2="40.2"/>
								<line class="st34" x1="448.2" y1="0.6" x2="448.2" y2="40.2"/>
								<line class="st34" x1="519.1" y1="0.6" x2="519.1" y2="40.2"/>
								<line class="st34" x1="558.4" y1="0.6" x2="558.4" y2="40.2"/>
								<line class="st34" x1="595" y1="0.6" x2="595" y2="40.2"/>
								<line class="st34" x1="633" y1="0.6" x2="633" y2="40.2"/>
								<line class="st34" x1="670.4" y1="0.6" x2="670.4" y2="40.2"/>
								<line class="st34" x1="446.4" y1="40.2" x2="483.7" y2="0.6"/>
								<line class="st34" x1="483.7" y1="40.2" x2="521" y2="0.6"/>
								<line class="st34" x1="521" y1="40.2" x2="558.4" y2="0.6"/>
								<line class="st34" x1="558.4" y1="40.2" x2="595.7" y2="0.6"/>
								<line class="st34" x1="595.7" y1="40.2" x2="633" y2="0.6"/>
								<line class="st34" x1="633" y1="40.2" x2="670.4" y2="0.6"/>
								<polygon class="st40" points="410.5,40.2 714.9,40.2 673.9,0.6 442,0.6 								"/>
								<line class="st40" x1="410.5" y1="40.2" x2="410.5" y2="85"/>
							</g>
						</g>
					</g>
				</g>
			</g>
			<g>
				<g>
					<g>
						<g>
							<path id="XMLID_4_" class="st8" d="M249.6,464.5l21.3-55.1c1-2.6,4.7-2.6,5.7,0l21.3,55.1H249.6z"/>
						</g>
						<g>
							<defs>
								<path id="SVGID_00000150808391474245750500000013290798806970216590_" d="M249.6,464.5l21.3-55.1c1-2.6,4.7-2.6,5.7,0
									l21.3,55.1H249.6z"/>
							</defs>
							<clipPath id="SVGID_00000039826601088368785950000018209644394535038103_">
								<use xlink:href="#SVGID_00000150808391474245750500000013290798806970216590_"  style="overflow:visible;"/>
							</clipPath>
							
								<rect x="254.5" y="421.3" style="clip-path:url(#SVGID_00000039826601088368785950000018209644394535038103_);fill:#FAFAFA;" width="37.8" height="11.7"/>
						</g>
						<g>
							<defs>
								<path id="SVGID_00000078756877254494954810000017544165588432763530_" d="M249.6,464.5l21.3-55.1c1-2.6,4.7-2.6,5.7,0
									l21.3,55.1H249.6z"/>
							</defs>
							<clipPath id="SVGID_00000037687485046907680880000001123262788137782200_">
								<use xlink:href="#SVGID_00000078756877254494954810000017544165588432763530_"  style="overflow:visible;"/>
							</clipPath>
							
								<rect x="252.4" y="443.3" style="clip-path:url(#SVGID_00000037687485046907680880000001123262788137782200_);fill:#FAFAFA;" width="42.8" height="11.7"/>
						</g>
					</g>
					<rect x="245.7" y="464.5" class="st43" width="56.4" height="4.6"/>
				</g>
				<g>
					<g>
						<g>
							<path id="XMLID_3_" class="st8" d="M559,464.7l21.3-55.1c1-2.6,4.7-2.6,5.7,0l21.3,55.1H559z"/>
						</g>
						<g>
							<defs>
								<path id="SVGID_00000097476541612201551400000000244113466769584055_" d="M559,464.7l21.3-55.1c1-2.6,4.7-2.6,5.7,0
									l21.3,55.1H559z"/>
							</defs>
							<clipPath id="SVGID_00000052106159666811700920000008845975050572701329_">
								<use xlink:href="#SVGID_00000097476541612201551400000000244113466769584055_"  style="overflow:visible;"/>
							</clipPath>
							
								<rect x="563.9" y="421.4" style="clip-path:url(#SVGID_00000052106159666811700920000008845975050572701329_);fill:#FAFAFA;" width="37.8" height="11.7"/>
						</g>
						<g>
							<defs>
								<path id="SVGID_00000135650253058318489020000014493055467206427045_" d="M559,464.7l21.3-55.1c1-2.6,4.7-2.6,5.7,0
									l21.3,55.1H559z"/>
							</defs>
							<clipPath id="SVGID_00000023978678910254523660000005440325009847715995_">
								<use xlink:href="#SVGID_00000135650253058318489020000014493055467206427045_"  style="overflow:visible;"/>
							</clipPath>
							
								<rect x="561.8" y="443.5" style="clip-path:url(#SVGID_00000023978678910254523660000005440325009847715995_);fill:#FAFAFA;" width="42.8" height="11.7"/>
						</g>
					</g>
					<rect x="555.1" y="464.7" class="st43" width="56.4" height="4.6"/>
				</g>
			</g>
			<g>
				<g>
					
						<ellipse transform="matrix(0.1473 -0.9891 0.9891 0.1473 -254.2524 449.9542)" class="st3" cx="133.8" cy="372.4" rx="44.2" ry="44.2"/>
					<g>
						<line class="st46" x1="133.8" y1="356.7" x2="133.8" y2="469.1"/>
						<line class="st46" x1="116.6" y1="359" x2="133.8" y2="378.3"/>
						<path class="st46" d="M149.1,377.2c-1.2,1.2-15.3,15.8-15.3,15.8"/>
					</g>
				</g>
				<line class="st46" x1="0.6" y1="470.2" x2="742.9" y2="470.2"/>
			</g>
		</g>
	</g>
</g>
<g>
	<g id="XMLID_29_">
		<g id="XMLID_48_">
			<path id="XMLID_56_" class="st47" d="M611.1,476.4c-0.4,0.4-0.8,0.9-1.1,1.5l-0.5-0.2c-0.1-0.3-0.3-0.5-0.7-0.5
				c-0.3,0-0.6,0.3-0.5,0.7c0,0.3,0.3,0.6,0.7,0.5c0.1,0,0.1,0,0.2-0.1l0.5,0.2c-0.3,0.6-0.4,1.1-0.5,1.7l0.7,0.1
				c0.2-1.3,0.8-2.5,1.8-3.5L611.1,476.4z"/>
			<path id="XMLID_55_" class="st47" d="M616.6,474.1c-0.2,0-0.3,0-0.5,0l-0.1-0.6c0.2-0.1,0.3-0.4,0.3-0.6c0-0.4-0.4-0.7-0.8-0.6
				c-0.4,0-0.7,0.4-0.6,0.8c0,0.3,0.2,0.5,0.4,0.6l0.1,0.6c-0.7,0.1-1.4,0.3-2.1,0.6l0.3,0.7c0.9-0.4,1.9-0.7,3-0.7
				c0.5,0,1,0.1,1.5,0.2l0.2-0.7C617.7,474.2,617.2,474.1,616.6,474.1z"/>
			<path id="XMLID_54_" class="st47" d="M623.2,476.7c0.3,0,0.6-0.3,0.5-0.7c0-0.3-0.3-0.6-0.7-0.5c-0.3,0-0.5,0.3-0.5,0.6l-0.4,0.4
				c-0.4-0.4-0.9-0.8-1.4-1.1l-0.4,0.6c1.1,0.7,2,1.7,2.6,2.9l0.7-0.3c-0.3-0.6-0.6-1.1-0.9-1.5l0.4-0.4
				C623.1,476.7,623.2,476.7,623.2,476.7z"/>
			<path id="XMLID_53_" class="st47" d="M616.1,484.3c-0.4,0-0.8,0-1.2,0c-0.9,0-1.7-0.1-2.5-0.2c-0.4-0.1-0.8-0.2-1.3-0.3
				c1,1.9,3.1,3.1,5.4,3.1c2.9,0,5.3-1.9,5.9-4.5c-0.7,0.4-1.5,0.8-2.5,1.1C618.9,484,617.5,484.2,616.1,484.3z"/>
			<path id="XMLID_49_" class="st47" d="M616.6,475.6c-3.4,0-6.1,2.7-6.1,5.9c0,0.4,0,0.8,0.1,1.3c0.7,0.5,2.7,0.9,5.3,0.7
				c2.9-0.2,5.3-1,6.7-2.2c0-0.2,0-0.4,0-0.6C622.3,477.9,619.7,475.6,616.6,475.6z M614.5,482.2c-1,0-1.8-0.8-1.8-1.8
				c0-1,0.8-1.8,1.8-1.8c1,0,1.8,0.8,1.8,1.8C616.3,481.3,615.5,482.2,614.5,482.2z M619.2,481.2c-0.8,0-1.4-0.6-1.4-1.4
				s0.6-1.4,1.4-1.4c0.8,0,1.4,0.6,1.4,1.4S620,481.2,619.2,481.2z"/>
		</g>
		<path id="XMLID_46_" class="st47" d="M632.6,477.5c-0.3-0.1-0.8-0.3-1.4-0.2c-0.6,0.1-0.8,0.3-0.8,1v0.9h2.2v1.7h-2.2v5.5h-1.9
			v-5.5h-1.3v-1.7h1.3v-0.9c0-1.7,0.9-2.8,2.6-2.8c0.6,0,1.2,0.1,1.6,0.3L632.6,477.5z"/>
		<path id="XMLID_44_" class="st47" d="M637.3,480.8c-0.2,0-0.4,0-0.5,0c-0.9,0-1.5,0.5-1.5,1.6v3.9h-1.9v-7.2h1.9v0.8
			c0.5-0.7,1.1-1,2-1c0.4,0,0.8,0.1,1.1,0.3L637.3,480.8z"/>
		<path id="XMLID_41_" class="st47" d="M645,482.7c0,0.2,0,0.5,0,0.7h-5.1c0.2,1,0.9,1.5,1.8,1.5c0.6,0,1.3-0.3,1.8-0.7l1.1,1.2
			c-0.8,0.7-1.9,1.1-3.1,1.1c-2.2,0-3.7-1.5-3.7-3.8c0-2.3,1.5-3.8,3.6-3.8C643.6,478.9,645,480.5,645,482.7z M639.9,482h3.2
			c-0.2-0.9-0.7-1.4-1.6-1.4C640.6,480.6,640.1,481.2,639.9,482z"/>
		<path id="XMLID_38_" class="st47" d="M652.7,482.7c0,0.2,0,0.5,0,0.7h-5.1c0.2,1,0.9,1.5,1.8,1.5c0.6,0,1.3-0.3,1.8-0.7l1.1,1.2
			c-0.8,0.7-1.9,1.1-3.1,1.1c-2.2,0-3.7-1.5-3.7-3.8c0-2.3,1.5-3.8,3.6-3.8C651.2,478.9,652.6,480.5,652.7,482.7z M647.5,482h3.2
			c-0.2-0.9-0.7-1.4-1.6-1.4C648.2,480.6,647.7,481.2,647.5,482z"/>
		<path id="XMLID_35_" class="st47" d="M661,482.7c0,2.2-1.5,3.8-3.5,3.8c-1,0-1.6-0.4-2.1-0.9v3.7h-1.9v-10.1h1.9v0.8
			c0.5-0.6,1.2-1,2.1-1C659.5,478.9,661,480.6,661,482.7z M655.3,482.7c0,1.1,0.7,2,1.8,2c1.1,0,1.9-0.9,1.9-2c0-1.1-0.7-2-1.9-2
			C656.1,480.7,655.3,481.6,655.3,482.7z"/>
		<path id="XMLID_32_" class="st47" d="M664.1,476.8c0,0.7-0.5,1.2-1.2,1.2c-0.7,0-1.2-0.5-1.2-1.2c0-0.7,0.5-1.2,1.2-1.2
			C663.6,475.5,664.1,476.1,664.1,476.8z M663.8,486.3h-1.9v-7.2h1.9V486.3z"/>
		<path id="XMLID_30_" class="st47" d="M667.1,481.7l2.7-2.6h2.4l-3.5,3.4l3.5,3.8h-2.4l-2.7-2.9v2.9h-1.9v-10.7h1.9V481.7z"/>
	</g>
	<g>
		<path class="st47" d="M535.4,486.2v-1.1c-0.5,0.7-1.4,1.2-2.4,1.2c-1.8,0-3.1-1.4-3.1-3.7c0-2.3,1.3-3.7,3.1-3.7
			c1,0,1.8,0.5,2.4,1.2v-3.8h1.1v9.8H535.4z M535.4,484.3v-3.2c-0.4-0.6-1.2-1.1-2.1-1.1c-1.4,0-2.3,1.2-2.3,2.7
			c0,1.6,0.8,2.7,2.3,2.7C534.2,485.4,535.1,484.9,535.4,484.3z"/>
		<path class="st47" d="M538,482.7c0-2.1,1.5-3.7,3.5-3.7c2.1,0,3.4,1.7,3.4,3.8v0.3h-5.7c0.1,1.3,1,2.4,2.5,2.4
			c0.8,0,1.6-0.3,2.2-0.9l0.5,0.7c-0.7,0.7-1.7,1.1-2.8,1.1C539.5,486.4,538,484.9,538,482.7z M541.4,479.9c-1.5,0-2.3,1.3-2.3,2.4
			h4.6C543.8,481.2,543,479.9,541.4,479.9z"/>
		<path class="st47" d="M545.6,485.3l0.6-0.8c0.5,0.5,1.4,1,2.3,1c1.1,0,1.7-0.5,1.7-1.2c0-1.7-4.4-0.7-4.4-3.3c0-1.1,1-2,2.6-2
			c1.2,0,2.1,0.5,2.6,1l-0.5,0.8c-0.4-0.5-1.2-0.9-2.1-0.9c-1,0-1.6,0.5-1.6,1.1c0,1.6,4.4,0.5,4.4,3.3c0,1.2-1,2.1-2.8,2.1
			C547.3,486.4,546.4,486.1,545.6,485.3z"/>
		<path class="st47" d="M552.5,477.4c0-0.4,0.3-0.7,0.7-0.7c0.4,0,0.7,0.3,0.7,0.7c0,0.4-0.3,0.7-0.7,0.7
			C552.8,478.2,552.5,477.8,552.5,477.4z M552.7,486.2v-7.1h1.1v7.1H552.7z"/>
		<path class="st47" d="M555.6,488.1l0.6-0.8c0.6,0.7,1.3,1,2.3,1c1.2,0,2.3-0.6,2.3-2.1v-1c-0.5,0.7-1.4,1.3-2.4,1.3
			c-1.8,0-3.1-1.4-3.1-3.7c0-2.3,1.3-3.7,3.1-3.7c1,0,1.8,0.5,2.4,1.2v-1.1h1.1v6.9c0,2.3-1.6,3.1-3.4,3.1
			C557.3,489.1,556.5,488.9,555.6,488.1z M560.7,484.2v-3.1c-0.4-0.6-1.2-1.1-2.1-1.1c-1.4,0-2.3,1.1-2.3,2.7c0,1.6,0.8,2.7,2.3,2.7
			C559.5,485.4,560.4,484.8,560.7,484.2z"/>
		<path class="st47" d="M568.4,486.2v-4.6c0-1.2-0.6-1.6-1.6-1.6c-0.9,0-1.7,0.5-2.1,1.1v5.2h-1.1v-7.1h1.1v1
			c0.5-0.6,1.5-1.2,2.5-1.2c1.5,0,2.3,0.7,2.3,2.3v5H568.4z"/>
		<path class="st47" d="M571,482.7c0-2.1,1.5-3.7,3.5-3.7c2.1,0,3.4,1.7,3.4,3.8v0.3h-5.7c0.1,1.3,1,2.4,2.5,2.4
			c0.8,0,1.6-0.3,2.2-0.9l0.5,0.7c-0.7,0.7-1.7,1.1-2.8,1.1C572.5,486.4,571,484.9,571,482.7z M574.4,479.9c-1.5,0-2.3,1.3-2.3,2.4
			h4.6C576.8,481.2,576.1,479.9,574.4,479.9z"/>
		<path class="st47" d="M584.4,486.2v-1.1c-0.5,0.7-1.4,1.2-2.4,1.2c-1.8,0-3.1-1.4-3.1-3.7c0-2.3,1.3-3.7,3.1-3.7
			c1,0,1.8,0.5,2.4,1.2v-3.8h1.1v9.8H584.4z M584.4,484.3v-3.2c-0.4-0.6-1.2-1.1-2.1-1.1c-1.4,0-2.3,1.2-2.3,2.7
			c0,1.6,0.8,2.7,2.3,2.7C583.1,485.4,584,484.9,584.4,484.3z"/>
		<path class="st47" d="M590.7,486.2v-9.8h1.1v3.8c0.6-0.8,1.4-1.2,2.4-1.2c1.8,0,3.1,1.5,3.1,3.7c0,2.3-1.3,3.7-3.1,3.7
			c-1,0-1.9-0.5-2.4-1.2v1.1H590.7z M593.9,485.4c1.4,0,2.3-1.2,2.3-2.7c0-1.6-0.8-2.7-2.3-2.7c-0.9,0-1.7,0.5-2.1,1.1v3.2
			C592.2,484.9,593.1,485.4,593.9,485.4z"/>
		<path class="st47" d="M598.6,488c0.2,0.1,0.4,0.1,0.6,0.1c0.5,0,0.8-0.2,1.1-0.7l0.5-1.1l-3-7.1h1.2l2.4,5.8l2.3-5.8h1.2l-3.5,8.5
			c-0.4,1-1.1,1.4-2.1,1.4c-0.2,0-0.6,0-0.8-0.1L598.6,488z"/>
	</g>
</g>
</svg>
