<?xml version="1.0" encoding="utf-8"?>
<!-- Generator: Adobe Illustrator 26.0.0, SVG Export Plug-In . SVG Version: 6.00 Build 0)  -->
<svg version="1.1" id="Layer_1" xmlns="http://www.w3.org/2000/svg" xmlns:xlink="http://www.w3.org/1999/xlink" x="0px" y="0px"
	 viewBox="0 0 881.9 339.6" style="enable-background:new 0 0 881.9 339.6;" xml:space="preserve">
<style type="text/css">
	.st0{fill:none;stroke:#000000;stroke-width:2;stroke-miterlimit:10;stroke-dasharray:6;}
	.st1{fill:none;stroke:#000000;stroke-width:2;stroke-miterlimit:10;}
	.st2{fill:#BFE4FF;stroke:#000000;stroke-width:2;stroke-miterlimit:10;}
	.st3{font-family:'Roboto';}
	.st4{font-size:32.8px;}
	.st5{fill:#FFF5C9;stroke:#000000;stroke-width:2;stroke-miterlimit:10;}
	.st6{fill:#ECFFC9;stroke:#000000;stroke-width:2;stroke-miterlimit:10;}
	.st7{fill:#FFE7D4;stroke:#000000;stroke-width:2;stroke-miterlimit:10;}
	.st8{fill:#D4FFE5;stroke:#000000;stroke-width:2;stroke-miterlimit:10;}
	.st9{fill:#FFFFFF;stroke:#000000;stroke-width:2;stroke-linecap:round;stroke-linejoin:round;stroke-miterlimit:10;}
	.st10{font-size:17px;}
</style>
<g id="Layer_2_00000005235261346023028550000002231403214027283857_">
	<g>
		<line class="st0" x1="39" y1="69.5" x2="39" y2="123.5"/>
		<g>
			<g>
				<line class="st1" x1="0" y1="123" x2="862.3" y2="123"/>
				<g>
					<polygon points="858.3,128.8 880,123 858.3,117.2 					"/>
				</g>
			</g>
		</g>
		<line class="st0" x1="389" y1="69.5" x2="389" y2="123.5"/>
		<line class="st0" x1="739" y1="68.5" x2="739" y2="122.5"/>
	</g>
	<g>
		<line class="st0" x1="39" y1="259.6" x2="39" y2="313.6"/>
		<g>
			<g>
				<line class="st1" x1="0" y1="313.1" x2="862.3" y2="313.1"/>
				<g>
					<polygon points="858.3,319 880,313.1 858.3,307.3 					"/>
				</g>
			</g>
		</g>
		<line class="st0" x1="389" y1="259.6" x2="389" y2="313.6"/>
		<line class="st0" x1="739" y1="258.6" x2="739" y2="312.6"/>
	</g>
</g>
<g>
	<circle class="st2" cx="39" cy="122.5" r="24"/>
	<text transform="matrix(1 0 0 1 29.791 133.9997)" class="st3 st4">1</text>
</g>
<g>
	<circle class="st5" cx="111" cy="123.5" r="24"/>
	<text transform="matrix(1 0 0 1 101.7912 133.9994)" class="st3 st4">2</text>
</g>
<g>
	<circle class="st6" cx="280" cy="122.5" r="24"/>
	<text transform="matrix(1 0 0 1 270.791 133.9999)" class="st3 st4">3</text>
</g>
<g>
	<circle class="st7" cx="403" cy="122.5" r="24"/>
	<text transform="matrix(1 0 0 1 392.791 133.9992)" class="st3 st4">4</text>
</g>
<g>
	<circle class="st8" cx="685" cy="123.5" r="24"/>
	<text transform="matrix(1 0 0 1 675.7906 134.9998)" class="st3 st4">5</text>
</g>
<g>
	<g>
		<line class="st1" x1="440" y1="183.5" x2="440" y2="221.3"/>
		<g>
			<polygon points="431.8,214.7 433.3,213.3 440,220.5 446.7,213.3 448.2,214.7 440,223.5 			"/>
		</g>
	</g>
</g>
<g>
	<path class="st9" d="M389,59.1c-1.1-8.6-9.3-15.1-25.7-17c-6.3-0.7-31.2-1.9-37.2-1.9c-56.3,0.2-73.9,3.4-94.9-2
		c-5-1.3-13.2-7.5-17.2-16.9c-3.9,9.4-12.2,15.6-17.2,16.9c-21,5.4-38.6,2.2-94.9,2c-6,0-31,1.2-37.2,1.9C48.3,44,40.1,50.5,39,59.1
		"/>
	<text transform="matrix(1.0038 0 0 1 165.8081 12.2788)" class="st3 st10">Throttle time</text>
</g>
<g>
	<circle class="st2" cx="39" cy="312.6" r="24"/>
	<text transform="matrix(1 0 0 1 29.791 324.1556)" class="st3 st4">1</text>
</g>
<g>
	<circle class="st6" cx="389" cy="312.6" r="24"/>
	<text transform="matrix(1 0 0 1 379.791 324.1558)" class="st3 st4">3</text>
</g>
<g>
	<circle class="st8" cx="739" cy="312.6" r="24"/>
	<text transform="matrix(1 0 0 1 729.7906 324.1558)" class="st3 st4">5</text>
</g>
</svg>
